# xmcd
#
# Track frame offsets:
#	150
#	15185
#	33147
#	51294
#	67767
#	83410
#	100971
#	116307
#	134954
#	147655
#	163669
#	176971
#	193124
#
# Disc length: 2787 seconds
#
# Revision: 1
# Processed by: cddbd v1.4PL0 Copyright (c) Steve Scherf et al.
# Submitted via: EasyCDDAExtractor 5.0.7
#
DISCID=ae0ae10d
DTITLE=Leonel Figuiredo - Portugues Que Regressa
DYEAR=2003
DGENRE=Portuguesa
TTITLE0=Portugues Que Regressa
TTITLE1=Ai Sou Portugues
TTITLE2=Ola Ola, Linda Aldeia
TTITLE3=Sou Portugues
TTITLE4=E Boazona Ze
TTITLE5=Vai De Festa Em Festa
TTITLE6=Cores De Protugal
TTITLE7=E Portuguesa, E Portuguesa
TTITLE8=Eu Vou Voltar, Eu Vou Voltar
TTITLE9=Ola Transmontana
TTITLE10=Da Ca Um Beijo Agora
TTITLE11=Tatuada Na Pele
TTITLE12=Mon Coeur Te Dit Je T'aime
EXTD=
EXTT0=
EXTT1=
EXTT2=
EXTT3=
EXTT4=
EXTT5=
EXTT6=
EXTT7=
EXTT8=
EXTT9=
EXTT10=
EXTT11=
EXTT12=
PLAYORDER=
